<svg width="16" height="16" viewBox="0 0 16 16" fill="none" xmlns="http://www.w3.org/2000/svg">
<path fill-rule="evenodd" clip-rule="evenodd" d="M1.99364 3.24844C2.20452 2.89927 3.36641 1.62926 4.19556 1.6676C4.44341 1.68814 4.66251 1.83807 4.84053 2.01197C5.24928 2.41112 6.41939 3.92076 6.48581 4.23843C6.64739 5.01756 5.71897 5.46668 6.00311 6.25197C6.7275 8.02451 7.97566 9.27261 9.74898 9.99628C10.5336 10.2804 10.9828 9.35203 11.7619 9.51429C12.0789 9.5807 13.5893 10.7508 13.9885 11.1595C14.1617 11.3368 14.3124 11.5566 14.3329 11.8044C14.3637 12.6773 13.0149 13.8556 12.752 14.0062C12.1317 14.4499 11.3224 14.4423 10.3357 13.9836C7.58266 12.8382 3.18292 8.52156 2.01623 5.66454C1.56982 4.68345 1.53901 3.86872 1.99364 3.24844Z" stroke="#5A44F5" stroke-width="1.5" stroke-linecap="round" stroke-linejoin="round"/>
</svg>
