<svg width="81" height="80" viewBox="0 0 81 80" fill="none" xmlns="http://www.w3.org/2000/svg">
  <path opacity="0.99" fill-rule="evenodd" clip-rule="evenodd" d="M7.76563 2.42188C29.5366 2.39583 51.3074 2.42188 73.0781 2.5C75.6042 3.15105 77.1927 4.73958 77.8438 7.26563C77.948 24.6094 77.948 41.9531 77.8438 59.2969C77.6049 59.7681 77.2142 59.9764 76.6719 59.9219C76.1295 59.9764 75.7389 59.7681 75.5 59.2969C75.448 42.4219 75.3958 25.5469 75.3438 8.67188C75.0574 6.51042 73.8333 5.28646 71.6719 5C50.5214 4.84533 29.3756 4.89741 8.23438 5.15625C6.56193 5.7351 5.65046 6.90697 5.5 8.67188C5.39583 29.5052 5.39583 50.3386 5.5 71.1719C5.78646 73.3333 7.01043 74.5573 9.17188 74.8438C30.0052 74.948 50.8386 74.948 71.6719 74.8438C73.8333 74.5573 75.0574 73.3333 75.3438 71.1719C75.3958 69.7136 75.448 68.2552 75.5 66.7969C75.7389 66.3256 76.1295 66.1173 76.6719 66.1719C77.2142 66.1173 77.6049 66.3256 77.8438 66.7969C77.948 68.7239 77.948 70.6511 77.8438 72.5781C77.1927 75.1042 75.6042 76.6927 73.0781 77.3438C51.3074 77.448 29.5364 77.448 7.76563 77.3438C5.23958 76.6927 3.65105 75.1042 3 72.5781C2.89583 50.8073 2.89583 29.0364 3 7.26563C3.67952 4.73728 5.26807 3.12269 7.76563 2.42188Z" fill="currentColor"/>
  <path opacity="0.94" fill-rule="evenodd" clip-rule="evenodd" d="M22.1407 11.1718C28.1763 10.6355 32.8378 12.8751 36.1251 17.8906C38.2215 21.9378 38.4818 26.1043 36.9063 30.3906C33.6251 36.8101 28.3907 39.4925 21.2032 38.4375C15.2101 36.8714 11.6424 33.0432 10.5001 26.9531C9.88625 20.9162 12.0998 16.2548 17.1407 12.9687C18.7238 12.0801 20.3906 11.4811 22.1407 11.1718ZM22.4532 13.8281C17.2035 15.0677 14.0786 18.349 13.0782 23.6718C14.0692 23.6459 15.0588 23.6718 16.047 23.75C16.5182 23.9889 16.7265 24.3795 16.672 24.9218C16.7265 25.4642 16.5182 25.8548 16.047 26.0937C15.0588 26.1718 14.0692 26.1978 13.0782 26.1718C14.1199 31.6926 17.4012 34.9739 22.922 36.0156C22.896 35.0247 22.922 34.0351 23.0001 33.0468C23.239 32.5756 23.6296 32.3673 24.172 32.4218C24.7143 32.3673 25.1049 32.5756 25.3438 33.0468C25.422 34.0351 25.4479 35.0247 25.422 36.0156C30.9428 34.9739 34.224 31.6926 35.2657 26.1718C34.2748 26.1978 33.2853 26.1718 32.297 26.0937C31.8257 25.8548 31.6174 25.4642 31.672 24.9218C31.6174 24.3795 31.8257 23.9889 32.297 23.75C33.2853 23.6718 34.2748 23.6459 35.2657 23.6718C34.224 18.1511 30.9428 14.8698 25.422 13.8281C25.4479 14.819 25.422 15.8086 25.3438 16.7968C25.1049 17.2681 24.7143 17.4764 24.172 17.4218C23.6296 17.4764 23.239 17.2681 23.0001 16.7968C22.922 15.8086 22.896 14.819 22.922 13.8281C22.7657 13.8281 22.6095 13.8281 22.4532 13.8281Z" fill="currentColor"/>
  <path opacity="0.939" fill-rule="evenodd" clip-rule="evenodd" d="M54.4844 11.1719C61.3609 10.5852 66.335 13.3456 69.4062 19.4531C71.6962 25.9451 70.2639 31.44 65.1094 35.9375C61.0826 38.7786 56.7076 39.4556 51.9844 37.9687C45.0344 34.8784 42.0915 29.5398 43.1562 21.9531C44.7336 16.0264 48.5095 12.4326 54.4844 11.1719ZM54.9531 13.8281C49.7034 15.0677 46.5784 18.349 45.5781 23.6719C46.569 23.6459 47.5586 23.6719 48.5469 23.75C49.0181 23.9889 49.2264 24.3795 49.1719 24.9219C49.2264 25.4642 49.0181 25.8548 48.5469 26.0937C47.5586 26.1719 46.569 26.1978 45.5781 26.1719C46.6198 31.6926 49.9011 34.9739 55.4219 36.0156C55.3959 35.0247 55.4219 34.0351 55.5 33.0469C55.7389 32.5756 56.1295 32.3673 56.6719 32.4219C57.2142 32.3673 57.6048 32.5756 57.8437 33.0469C57.9219 34.0351 57.9478 35.0247 57.9219 36.0156C63.4426 34.9739 66.7239 31.6926 67.7656 26.1719C66.7747 26.1978 65.7851 26.1719 64.7969 26.0937C64.3256 25.8548 64.1173 25.4642 64.1719 24.9219C64.1173 24.3795 64.3256 23.9889 64.7969 23.75C65.7851 23.6719 66.7747 23.6459 67.7656 23.6719C66.7239 18.1511 63.4426 14.8698 57.9219 13.8281C57.9478 14.8191 57.9219 15.8086 57.8437 16.7969C57.6048 17.2681 57.2142 17.4764 56.6719 17.4219C56.1295 17.4764 55.7389 17.2681 55.5 16.7969C55.4219 15.8086 55.3959 14.8191 55.4219 13.8281C55.2656 13.8281 55.1094 13.8281 54.9531 13.8281Z" fill="currentColor"/>
  <path opacity="0.943" fill-rule="evenodd" clip-rule="evenodd" d="M22.4532 43.6718C27.7004 43.2079 31.4243 45.3434 33.625 50.0781C35.1358 55.077 33.8077 59.1134 29.6407 62.1875C26.76 63.7912 23.7391 64.1037 20.5782 63.125C15.7719 60.8843 13.6625 57.1082 14.25 51.7968C15.312 47.3754 18.0463 44.6671 22.4532 43.6718ZM22.7657 46.3281C22.895 47.2895 22.9732 48.2792 23 49.2968C23.2389 49.7681 23.6296 49.9764 24.1719 49.9218C24.551 49.9368 24.8896 49.8328 25.1875 49.6093C25.3844 48.5321 25.4885 47.4384 25.5 46.3281C28.6511 47.1875 30.6563 49.1926 31.5157 52.3437C30.5261 52.3957 29.5364 52.4479 28.5469 52.5C28.0757 52.7389 27.8674 53.1295 27.9219 53.6718C27.9069 54.0509 28.011 54.3895 28.2344 54.6875C29.3116 54.8843 30.4054 54.9884 31.5157 55C30.6563 58.1511 28.6511 60.1562 25.5 61.0156C25.448 60.0261 25.3958 59.0364 25.3438 58.0468C25.1049 57.5756 24.7143 57.3673 24.1719 57.4218C23.7929 57.4068 23.4543 57.5109 23.1563 57.7343C22.9594 58.8115 22.8554 59.9053 22.8438 61.0156C19.6927 60.1562 17.6875 58.1511 16.8282 55C17.8177 54.9479 18.8074 54.8957 19.7969 54.8437C20.2682 54.6048 20.4764 54.2142 20.4219 53.6718C20.4369 53.2928 20.3329 52.9542 20.1094 52.6562C19.0322 52.4593 17.9385 52.3553 16.8282 52.3437C17.69 49.2164 19.6691 47.2112 22.7657 46.3281Z" fill="currentColor"/>
  <path opacity="0.928" fill-rule="evenodd" clip-rule="evenodd" d="M45.2655 47.4219C48.8325 46.9605 51.3066 48.3668 52.6874 51.6407C53.5808 55.4527 52.2527 58.135 48.703 59.6875C44.891 60.581 42.2086 59.2529 40.6561 55.7032C39.7849 51.559 41.3213 48.7985 45.2655 47.4219ZM45.7343 50.0782C43.6654 50.881 42.806 52.3915 43.1561 54.6094C43.9208 56.6979 45.4052 57.5572 47.6093 57.1875C49.6977 56.4229 50.5571 54.9385 50.1874 52.7344C49.4208 50.6707 47.9364 49.7852 45.7343 50.0782Z" fill="currentColor"/>
  <path opacity="0.928" fill-rule="evenodd" clip-rule="evenodd" d="M62.7655 47.4219C66.3325 46.9605 68.8066 48.3668 70.1874 51.6407C71.0808 55.4527 69.7527 58.135 66.203 59.6875C62.391 60.581 59.7086 59.2529 58.1561 55.7032C57.2849 51.559 58.8213 48.7985 62.7655 47.4219ZM63.2343 50.0782C61.1654 50.881 60.306 52.3915 60.6561 54.6094C61.4208 56.6979 62.9052 57.5572 65.1093 57.1875C67.1977 56.4229 68.0571 54.9385 67.6874 52.7344C66.9208 50.6707 65.4364 49.7852 63.2343 50.0782Z" fill="currentColor"/>
  <path opacity="0.933" fill-rule="evenodd" clip-rule="evenodd" d="M35.5781 64.9218C37.9011 64.5331 39.4897 65.4184 40.3438 67.5781C40.8097 69.9025 39.9503 71.4911 37.7656 72.3437C35.4413 72.8097 33.8527 71.9503 33 69.7656C32.5541 67.427 33.4134 65.8123 35.5781 64.9218ZM36.2031 67.5781C35.9463 67.7056 35.7641 67.914 35.6563 68.2031C35.5192 69.6076 36.1181 70.0503 37.4531 69.5312C38.0808 68.2081 37.6641 67.557 36.2031 67.5781Z" fill="currentColor"/>
  <path opacity="0.932" fill-rule="evenodd" clip-rule="evenodd" d="M45.5781 64.9218C47.9011 64.5331 49.4897 65.4184 50.3438 67.5781C50.8097 69.9025 49.9503 71.4911 47.7656 72.3437C45.4413 72.8097 43.8527 71.9503 43 69.7656C42.5541 67.427 43.4134 65.8123 45.5781 64.9218ZM46.2031 67.5781C45.9463 67.7056 45.7641 67.914 45.6563 68.2031C45.5192 69.6076 46.1181 70.0503 47.4531 69.5312C48.0808 68.2081 47.6641 67.557 46.2031 67.5781Z" fill="currentColor"/>
  <path opacity="0.933" fill-rule="evenodd" clip-rule="evenodd" d="M55.5781 64.9218C57.9011 64.5331 59.4897 65.4184 60.3438 67.5781C60.8097 69.9025 59.9503 71.4911 57.7656 72.3437C55.4413 72.8097 53.8527 71.9503 53 69.7656C52.5541 67.427 53.4134 65.8123 55.5781 64.9218ZM56.2031 67.5781C55.9463 67.7056 55.7641 67.914 55.6563 68.2031C55.5192 69.6076 56.1181 70.0503 57.4531 69.5312C58.0808 68.2081 57.6641 67.557 56.2031 67.5781Z" fill="currentColor"/>
  <path opacity="0.932" fill-rule="evenodd" clip-rule="evenodd" d="M65.5781 64.9218C67.9011 64.5331 69.4897 65.4184 70.3438 67.5781C70.8097 69.9025 69.9503 71.4911 67.7656 72.3437C65.4413 72.8097 63.8527 71.9503 63 69.7656C62.5541 67.427 63.4134 65.8123 65.5781 64.9218ZM66.2031 67.5781C65.9463 67.7056 65.7641 67.914 65.6563 68.2031C65.5192 69.6076 66.1181 70.0503 67.4531 69.5312C68.0808 68.2081 67.6641 67.557 66.2031 67.5781Z" fill="currentColor"/>
</svg>
