<svg width="80" height="80" viewBox="0 0 80 80" fill="none" xmlns="http://www.w3.org/2000/svg">
  <path opacity="0.945" fill-rule="evenodd" clip-rule="evenodd" d="M10.3906 -0.078125C30.0781 -0.078125 49.7656 -0.078125 69.4531 -0.078125C72.1239 0.796098 73.7123 2.61902 74.2188 5.39062C74.2969 23.7239 74.323 42.0572 74.2969 60.3906C75.625 60.3022 76.927 60.4323 78.2031 60.7812C78.9788 61.2694 79.5516 61.9205 79.9219 62.7344C79.9219 64.6094 79.9219 66.4844 79.9219 68.3594C79.1192 71.1919 77.2442 72.8064 74.2969 73.2031C74.307 76.6284 72.6923 78.868 69.4531 79.9219C49.7656 79.9219 30.0781 79.9219 10.3906 79.9219C7.15133 78.868 5.53675 76.6284 5.54688 73.2031C2.59961 72.8064 0.724609 71.1919 -0.078125 68.3594C-0.078125 66.4844 -0.078125 64.6094 -0.078125 62.7344C0.460686 61.4931 1.39819 60.738 2.73438 60.4688C3.67044 60.3908 4.60794 60.3647 5.54688 60.3906C5.52083 42.0572 5.54688 23.7239 5.625 5.39062C6.13133 2.61902 7.71987 0.796098 10.3906 -0.078125ZM11.7969 2.26562C30.5469 2.23958 49.2969 2.26562 68.0469 2.34375C70.0673 2.59347 71.2914 3.71327 71.7188 5.70312C71.7969 23.9322 71.823 42.1614 71.7969 60.3906C70.8073 60.3906 69.8177 60.3906 68.8281 60.3906C68.8542 44.9217 68.8281 29.453 68.75 13.9844C68.4634 12.187 67.4478 11.0151 65.7031 10.4688C48.5156 10.3646 31.3281 10.3646 14.1406 10.4688C12.3959 11.0151 11.3803 12.187 11.0938 13.9844C11.0156 29.453 10.9896 44.9217 11.0156 60.3906C10.026 60.3906 9.03645 60.3906 8.04688 60.3906C8.02083 42.1614 8.04688 23.9322 8.125 5.70312C8.57939 3.71164 9.80336 2.5658 11.7969 2.26562ZM14.6094 12.8906C21.4844 12.8906 28.3594 12.8906 35.2344 12.8906C35.2344 13.9844 35.2344 15.0781 35.2344 16.1719C33.0463 16.1458 30.8588 16.1719 28.6719 16.25C28.012 16.718 27.8298 17.317 28.125 18.0469C28.3147 18.2889 28.5491 18.4711 28.8281 18.5938C39.1777 18.6202 49.5162 18.6983 59.8438 18.8281C59.948 19.7136 59.948 20.5989 59.8438 21.4844C59.7656 21.5625 59.6875 21.6406 59.6094 21.7188C46.4844 21.823 33.3594 21.823 20.2344 21.7188C20.1562 21.6406 20.0781 21.5625 20 21.4844C19.8958 20.5989 19.8958 19.7136 20 18.8281C21.4838 18.7394 22.9681 18.6092 24.4531 18.4375C24.9053 17.983 25.0355 17.4361 24.8438 16.7969C24.7656 16.5105 24.5833 16.3281 24.2969 16.25C22.6823 16.1458 21.0677 16.1458 19.4531 16.25C17.7922 17.0194 17.115 18.3214 17.4219 20.1562C17.0636 21.9523 17.6886 23.2544 19.2969 24.0625C26.1628 24.2436 33.0378 24.3217 39.9219 24.2969C46.6406 24.2708 53.3594 24.2448 60.0781 24.2188C61.1872 23.8908 61.9425 23.1877 62.3438 22.1094C62.448 20.8073 62.448 19.5052 62.3438 18.2031C62.0052 17.2395 61.3542 16.5886 60.3906 16.25C55.1305 16.1719 49.87 16.1458 44.6094 16.1719C44.6094 15.0781 44.6094 13.9844 44.6094 12.8906C51.4845 12.8646 58.3595 12.8906 65.2344 12.9688C65.807 13.2294 66.1456 13.6721 66.25 14.2969C66.3542 22.3177 66.3542 30.3386 66.25 38.3594C61.9236 31.8452 55.8558 29.0587 48.0469 30C47.1598 30.15 46.3005 30.3844 45.4688 30.7031C41.7708 29.4531 38.073 29.4531 34.375 30.7031C26.7491 28.573 20.2906 30.448 15 36.3281C14.5312 37.0052 14.0625 37.6823 13.5938 38.3594C13.4896 30.3386 13.4896 22.3177 13.5938 14.2969C13.7301 13.668 14.0686 13.1993 14.6094 12.8906ZM37.7344 12.8906C39.1927 12.8906 40.6511 12.8906 42.1094 12.8906C42.1094 13.9844 42.1094 15.0781 42.1094 16.1719C40.6511 16.1719 39.1927 16.1719 37.7344 16.1719C37.7344 15.0781 37.7344 13.9844 37.7344 12.8906ZM27.4219 32.2656C28.4397 32.1945 29.4292 32.2727 30.3906 32.5C28.743 33.5852 27.2847 34.8873 26.0156 36.4062C19.5855 38.7175 16.7989 43.2748 17.6562 50.0781C18.8523 54.5034 21.6389 57.3941 26.0156 58.75C26.4266 59.3175 26.8953 59.8383 27.4219 60.3125C25.0781 60.4167 22.7344 60.4167 20.3906 60.3125C16.0313 57.2461 13.7396 53.0273 13.5156 47.6562C13.8372 40.9841 17.0142 36.2445 23.0469 33.4375C24.485 32.8959 25.9434 32.5053 27.4219 32.2656ZM38.5156 32.2656C39.5334 32.1945 40.523 32.2727 41.4844 32.5C39.7855 33.5212 38.327 34.8233 37.1094 36.4062C31.6161 38.1498 28.6994 41.8998 28.3594 47.6562C28.7683 53.2717 31.633 56.9697 36.9531 58.75C37.4739 59.2708 37.9948 59.7917 38.5156 60.3125C36.1719 60.4167 33.8281 60.4167 31.4844 60.3125C26.5584 56.8398 24.2928 52.0742 24.6875 46.0156C26.0622 38.1566 30.6716 33.5733 38.5156 32.2656ZM49.6094 32.2656C57.7448 32.2036 63.1355 36.0058 65.7812 43.6719C67.1366 49.6855 65.6002 54.8156 61.1719 59.0625C60.6266 59.5173 60.0538 59.9341 59.4531 60.3125C53.7761 60.4167 48.0989 60.4167 42.4219 60.3125C36.2122 55.5567 34.3113 49.4369 36.7188 41.9531C39.2209 36.3161 43.5178 33.0869 49.6094 32.2656ZM34.4531 54.6094C32.8767 53.4186 31.8091 51.8561 31.25 49.9219C30.4105 46.0864 31.5042 42.9092 34.5312 40.3906C32.7948 45.1072 32.7688 49.8469 34.4531 54.6094ZM23.2031 40.5469C23.3186 40.5264 23.4228 40.5525 23.5156 40.625C21.6694 45.3392 21.6434 50.0528 23.4375 54.7656C19.3528 50.9334 18.832 46.6627 21.875 41.9531C22.3497 41.5048 22.7923 41.0361 23.2031 40.5469ZM13.5156 56.7969C14.2962 58.0747 15.2337 59.2466 16.3281 60.3125C15.3921 60.3905 14.4546 60.4166 13.5156 60.3906C13.5156 59.1927 13.5156 57.9948 13.5156 56.7969ZM66.1719 56.7969C66.3269 57.9659 66.3789 59.1637 66.3281 60.3906C65.3892 60.4166 64.4517 60.3905 63.5156 60.3125C64.6187 59.2898 65.5042 58.118 66.1719 56.7969ZM3.04688 62.8906C27.6303 62.8645 52.2136 62.8906 76.7969 62.9688C77.2034 63.1148 77.4378 63.4012 77.5 63.8281C77.6605 65.3598 77.5562 66.8703 77.1875 68.3594C76.7191 69.5569 75.8597 70.312 74.6094 70.625C72.0058 70.7031 69.4016 70.7292 66.7969 70.7031C67.6555 65.9889 65.7283 64.1139 61.0156 65.0781C56.4191 64.2059 54.4919 66.0809 55.2344 70.7031C43.9842 70.677 32.7342 70.7031 21.4844 70.7812C20.2994 71.5047 20.2472 72.2859 21.3281 73.125C38.1509 73.2031 54.9739 73.2292 71.7969 73.2031C71.7391 75.6825 70.4891 77.1148 68.0469 77.5C49.2969 77.6042 30.5469 77.6042 11.7969 77.5C9.35472 77.1148 8.10472 75.6825 8.04688 73.2031C11.0161 73.2292 13.9848 73.2031 16.9531 73.125C17.2395 73.0469 17.4219 72.8645 17.5 72.5781C17.7694 71.7608 17.535 71.1617 16.7969 70.7812C12.9427 70.7292 9.08855 70.677 5.23438 70.625C3.86917 70.2494 2.95772 69.39 2.5 68.0469C2.27636 66.647 2.22428 65.2408 2.34375 63.8281C2.43727 63.3978 2.67164 63.0853 3.04688 62.8906ZM57.8906 67.5781C60.0261 67.5781 62.1614 67.5781 64.2969 67.5781C64.2969 68.6198 64.2969 69.6614 64.2969 70.7031C62.1094 70.7031 59.9219 70.7031 57.7344 70.7031C57.6886 69.6477 57.7406 68.6059 57.8906 67.5781Z" fill="currentColor"/>
  <path opacity="0.926" fill-rule="evenodd" clip-rule="evenodd" d="M49.1409 36.172C52.5034 35.7573 55.4982 36.5905 58.1252 38.672C58.483 40.1234 57.9362 40.7223 56.4846 40.4688C53.1496 38.2552 49.7121 38.099 46.1721 40.0001C42.4948 42.6462 41.2709 46.1618 42.5002 50.5469C44.6043 55.3101 48.224 57.2112 53.3596 56.2501C58.0604 54.5321 60.2218 51.1727 59.844 46.1719C59.6241 45.2788 59.3898 44.3934 59.1409 43.5157C59.3255 42.2809 60.0026 41.9424 61.1721 42.5001C61.662 43.2913 62.0005 44.1507 62.1877 45.0782C63.082 50.8151 61.0246 55.112 56.0159 57.9688C50.6557 60.1246 45.9941 59.109 42.0315 54.9219C38.7227 50.2596 38.6185 45.5201 41.719 40.7032C43.6523 38.292 46.1262 36.7815 49.1409 36.172Z" fill="currentColor"/>
</svg>
