<svg width="81" height="80" viewBox="0 0 81 80" fill="none" xmlns="http://www.w3.org/2000/svg">
<g clip-path="url(#clip0_232_203)">
<path opacity="0.939" fill-rule="evenodd" clip-rule="evenodd" d="M30.1095 -0.078125C36.9845 -0.078125 43.8595 -0.078125 50.7345 -0.078125C51.6384 0.276473 52.3937 0.849391 53.0001 1.64062C54.0686 4.53386 55.1364 7.42448 56.2032 10.3125C58.7032 10.3646 61.2032 10.4167 63.7032 10.4688C67.7245 11.1567 70.2506 13.4744 71.2814 17.4219C71.5846 19.0908 71.5846 20.7575 71.2814 22.4219C70.8596 23.4945 70.1045 24.2238 69.0157 24.6094C67.2062 37.8875 65.4093 51.1688 63.6251 64.4531C62.9732 65.2138 62.2701 65.2659 61.5157 64.6094C61.3451 64.3464 61.2409 64.06 61.2032 63.75C62.9542 50.7581 64.6729 37.7634 66.3595 24.7656C49.0678 24.7395 31.7761 24.7656 14.4845 24.8438C14.9089 27.0344 15.1433 29.248 15.1876 31.4844C14.2716 32.3741 13.4904 32.2698 12.8439 31.1719C12.5829 29.0844 12.2965 27.0011 11.9845 24.9219C11.4759 24.5086 10.9551 24.0919 10.422 23.6719C10.0571 23.2553 9.77064 22.7866 9.56261 22.2656C8.75702 18.2239 9.87682 14.8645 12.922 12.1875C14.173 11.2493 15.5793 10.6763 17.1407 10.4688C19.6923 10.3906 22.2443 10.3646 24.797 10.3906C25.7553 7.38573 26.8229 4.41698 28.0001 1.48438C28.5942 0.786975 29.2973 0.266142 30.1095 -0.078125ZM31.3595 2.26562C37.669 2.19111 43.9711 2.26923 50.2657 2.5C50.6729 2.80288 50.9593 3.1935 51.1251 3.67188C51.9284 5.89956 52.6837 8.13914 53.3907 10.3906C52.349 10.3906 51.3075 10.3906 50.2657 10.3906C49.8014 8.7633 49.2285 7.17475 48.547 5.625C45.8525 5.44472 43.144 5.36659 40.422 5.39062C37.8178 5.41667 35.2137 5.4427 32.6095 5.46875C32.3675 5.65844 32.1853 5.89281 32.0626 6.17188C31.5832 7.53203 31.0884 8.8862 30.5782 10.2344C29.5365 10.4427 28.495 10.4427 27.4532 10.2344C28.2973 7.83259 29.1567 5.43677 30.0314 3.04688C30.406 2.63931 30.8487 2.37889 31.3595 2.26562ZM34.172 7.89062C38.392 7.83858 42.6107 7.89066 46.8282 8.04688C47.1214 8.82206 47.3818 9.60331 47.6095 10.3906C42.8176 10.4167 38.0259 10.3906 33.2345 10.3125C33.5321 9.49722 33.8446 8.68992 34.172 7.89062ZM17.4532 12.8906C32.8179 12.8646 48.1825 12.8906 63.547 12.9688C66.5604 13.6384 68.3573 15.4873 68.9376 18.5156C69.0418 19.5052 69.0418 20.4948 68.9376 21.4844C68.8075 21.823 68.5731 22.0573 68.2345 22.1875C49.6928 22.2917 31.1512 22.2917 12.6095 22.1875C12.0309 21.6758 11.7705 21.0248 11.8282 20.2344C11.8394 16.3212 13.7144 13.8733 17.4532 12.8906Z" fill="#5A44F5"/>
<path opacity="0.931" fill-rule="evenodd" clip-rule="evenodd" d="M34.953 29.7656C39.3283 29.7396 43.7033 29.7656 48.078 29.8438C49.3822 30.1061 50.4499 30.7572 51.2811 31.7969C52.0166 33.0858 52.7719 34.3619 53.5468 35.625C54.4663 35.18 55.4299 34.7894 56.4374 34.4531C57.5011 34.548 57.9177 35.1208 57.6874 36.1719C56.151 39.3489 54.6144 42.5261 53.078 45.7031C53.1301 45.7552 53.1822 45.8074 53.2343 45.8594C54.0997 45.3333 54.9852 44.8385 55.8905 44.375C56.919 44.1217 57.8043 44.3561 58.5468 45.0781C59.4793 46.6827 60.2865 48.3494 60.9686 50.0781C61.1266 51.25 61.0226 52.3958 60.6561 53.5156C58.5207 57.1614 56.3854 60.8074 54.2499 64.4531C53.544 65.7314 52.4763 66.5388 51.0468 66.875C49.2768 66.9531 47.5058 66.9792 45.7343 66.9531C45.7935 67.7027 45.7154 68.4319 45.4999 69.1406C44.9188 69.6722 44.2677 69.7503 43.5468 69.375C41.4374 66.6406 39.328 63.9063 37.2186 61.1719C36.4327 60.0513 36.5369 59.0097 37.5311 58.0469C39.5861 55.7366 41.6955 53.471 43.8593 51.25C44.4851 51.0785 45.0319 51.2086 45.4999 51.6406C45.7202 52.5592 45.7983 53.4967 45.7343 54.4531C47.2483 54.505 48.7586 54.4528 50.2655 54.2969C49.4013 53.0111 48.7243 51.631 48.2343 50.1563C48.354 49.3438 48.7185 48.6667 49.328 48.125C50.1613 47.6563 50.9947 47.1875 51.828 46.7188C48.1527 46.4205 44.5068 45.9517 40.8905 45.3125C40.5102 44.7319 40.4841 44.133 40.8124 43.5156C41.6966 42.9681 42.556 42.3953 43.3905 41.7969C42.6354 40.3906 41.8801 38.9844 41.1249 37.5781C40.4933 38.973 39.686 40.2491 38.703 41.4063C38.0632 41.7531 37.3861 41.8574 36.6718 41.7188C36.0738 41.446 35.501 41.1335 34.953 40.7813C33.2718 39.7194 31.6311 38.5996 30.0311 37.4219C29.6602 36.7353 29.556 36.0063 29.7186 35.2344C30.4815 33.5791 31.4971 32.0947 32.7655 30.7813C33.4494 30.3086 34.1786 29.97 34.953 29.7656ZM35.2655 32.2656C36.3085 32.2397 37.3502 32.2656 38.3905 32.3438C38.8197 33.2024 39.2885 34.0358 39.7968 34.8438C38.9436 36.2633 38.1104 37.6955 37.2968 39.1406C35.5572 38.1039 33.8385 37.0361 32.1405 35.9375C32.6354 35.1302 33.1301 34.323 33.6249 33.5156C34.0897 32.9613 34.6366 32.5447 35.2655 32.2656ZM53.5468 38.6719C52.8005 40.4771 51.9672 42.2478 51.0468 43.9844C50.9166 44.0364 50.7863 44.0886 50.6561 44.1406C49.0016 43.9628 47.361 43.7285 45.7343 43.4375C46.3143 43.0449 46.4965 42.498 46.2811 41.7969C44.6083 38.6335 42.9157 35.4824 41.203 32.3438C43.3905 32.2396 45.578 32.2396 47.7655 32.3438C48.3855 32.4944 48.8804 32.833 49.2499 33.3594C50.148 34.9996 51.0855 36.6141 52.0624 38.2031C52.4752 38.5983 52.9699 38.7546 53.5468 38.6719ZM56.5155 46.7969C57.2838 47.9685 57.9349 49.2185 58.4686 50.5469C58.5922 51.2385 58.5401 51.9155 58.3124 52.5781C57.9218 53.1771 57.5311 53.7761 57.1405 54.375C55.8385 54.4792 54.5363 54.4792 53.2343 54.375C52.3936 53.0328 51.6124 51.6527 50.8905 50.2344C52.7755 49.0846 54.6505 47.9388 56.5155 46.7969ZM43.078 55.7031C43.1644 56.1855 43.4249 56.5761 43.8593 56.875C47.7666 56.9011 51.6729 56.9792 55.578 57.1094C54.2708 59.2766 52.9947 61.4641 51.7499 63.6719C51.5296 63.873 51.2952 64.0553 51.0468 64.2188C48.8218 64.4219 46.5822 64.5261 44.328 64.5313C43.9976 64.6183 43.6851 64.7486 43.3905 64.9219C42.0285 63.2475 40.7263 61.5288 39.4843 59.7656C40.6857 58.4085 41.8836 57.0542 43.078 55.7031Z" fill="#5A44F5"/>
<path opacity="0.953" fill-rule="evenodd" clip-rule="evenodd" d="M58.2344 79.9219C46.4114 79.9219 34.5886 79.9219 22.7656 79.9219C20.805 79.2895 19.4769 77.9875 18.7812 76.0156C16.9916 62.5245 15.1947 49.035 13.3906 35.5469C13.5809 34.4872 14.2059 34.0966 15.2656 34.375C15.7637 34.6772 15.9981 35.12 15.9688 35.7031C17.6483 48.3576 19.3148 61.0139 20.9688 73.6719C20.9005 75.8405 21.9161 77.1164 24.0156 77.5C35.2713 77.6537 46.5213 77.6017 57.7656 77.3437C58.6148 77.0673 59.2137 76.5205 59.5625 75.7031C59.9997 73.2162 60.3642 70.7162 60.6562 68.2031C60.9656 67.3584 61.5647 67.072 62.4531 67.3437C62.9806 67.6664 63.1889 68.1351 63.0781 68.75C62.8098 71.2345 62.4714 73.7086 62.0625 76.1719C61.4202 78.0905 60.1441 79.3405 58.2344 79.9219Z" fill="#5A44F5"/>
<path opacity="0.935" fill-rule="evenodd" clip-rule="evenodd" d="M28.8595 40.5468C29.9545 40.5209 31.0482 40.5468 32.1407 40.625C32.4726 40.8003 32.759 41.0346 33.0001 41.3281C34.3021 44.1406 35.6043 46.9531 36.9064 49.7656C37.1662 51.1198 36.6193 51.7187 35.2657 51.5625C34.5304 51.2914 33.8012 51.0048 33.0782 50.7031C32.1731 52.1745 31.2878 53.6589 30.422 55.1562C31.672 55.2082 32.922 55.2604 34.172 55.3125C35.0061 55.626 35.5007 56.2251 35.6564 57.1093C35.7606 59.7656 35.7606 62.4218 35.6564 65.0781C35.5007 65.9623 35.0061 66.5614 34.172 66.875C31.6081 67.4779 29.3946 66.879 27.5314 65.0781C25.2104 61.1654 22.9709 57.2071 20.8126 53.2031C20.5001 52.2135 20.5001 51.2239 20.8126 50.2343C21.5575 48.5625 22.3646 46.9218 23.2345 45.3125C22.2142 44.5787 21.1725 43.8756 20.1095 43.2031C19.54 41.9207 19.9565 41.2176 21.3595 41.0937C23.8875 40.962 26.3875 40.7796 28.8595 40.5468ZM28.8595 43.0468C29.5961 42.9957 30.3251 43.0479 31.047 43.2031C31.7762 44.7656 32.5053 46.3281 33.2345 47.8906C32.8592 47.894 32.4426 47.9201 31.9845 47.9687C31.7609 48.0414 31.5787 48.1717 31.4376 48.3593C29.7062 51.4578 27.9354 54.5307 26.1251 57.5781C25.2525 56.1976 24.419 54.7914 23.6251 53.3593C23.092 52.5189 22.9879 51.6335 23.3126 50.7031C24.3187 48.7431 25.2823 46.7639 26.2032 44.7656C26.0996 44.1654 25.7871 43.7226 25.2657 43.4375C26.4864 43.3004 27.6843 43.1701 28.8595 43.0468ZM29.0157 57.5781C30.422 57.5781 31.8282 57.5781 33.2345 57.5781C33.2345 59.8698 33.2345 62.1614 33.2345 64.4531C31.5765 64.8334 30.2484 64.3646 29.2501 63.0468C28.7007 62.0817 28.1539 61.1182 27.6095 60.1562C28.0592 59.2826 28.5279 58.4232 29.0157 57.5781Z" fill="#5A44F5"/>
</g>
<defs>
<clipPath id="clip0_232_203">
<rect width="80" height="80" fill="white" transform="translate(0.5)"/>
</clipPath>
</defs>
</svg>
