<svg width="20" height="20" viewBox="0 0 20 20" fill="none" xmlns="http://www.w3.org/2000/svg">
  <path fill-rule="evenodd" clip-rule="evenodd" d="M0 16.4354C0 12.2721 0 8.13605 0 4C0.0272108 4 0.02721 4 0.0544209 4C2.06802 4 4.08162 4 6.09523 4C6.74829 4 7.40135 4.10885 8.0272 4.38096C9.034 4.81633 9.60543 5.60544 9.76869 6.66667C9.85032 7.2381 9.82311 7.80952 9.63264 8.35373C9.44216 8.92516 9.06121 9.30612 8.5442 9.60544C8.46257 9.65986 8.38094 9.68707 8.29931 9.74149C8.35373 9.7687 8.38094 9.7687 8.40815 9.79591C9.38774 10.1769 9.95917 10.9116 10.1496 11.9184C10.3129 12.7347 10.2313 13.551 9.85032 14.3129C9.30611 15.4286 8.40815 16.0816 7.18366 16.2993C6.66666 16.3809 6.12244 16.4354 5.60543 16.4354C3.7823 16.4354 1.95918 16.4354 0.136054 16.4354C0.0816325 16.4354 0.0544217 16.4354 0 16.4354ZM2.88435 14.2585C2.91156 14.2585 2.93877 14.2585 2.93877 14.2585C3.80952 14.2585 4.68026 14.2585 5.55101 14.2585C5.82312 14.2585 6.09523 14.2313 6.34013 14.1769C6.96598 14.0408 7.37414 13.6871 7.51019 13.034C7.56461 12.8163 7.56462 12.5714 7.56462 12.3265C7.5374 11.7279 7.21087 11.2925 6.63944 11.0748C6.34013 10.966 6.0408 10.9388 5.74149 10.9116C4.78911 10.9116 3.83673 10.9116 2.88435 10.9116H2.85714C2.88435 12.0544 2.88435 13.1701 2.88435 14.2585ZM2.88435 8.89795C2.91156 8.89795 2.91156 8.89795 2.93877 8.89795C3.83673 8.89795 4.70747 8.89795 5.60543 8.89795C6.01359 8.89795 6.39455 8.81632 6.7755 8.62584C7.04761 8.48979 7.21087 8.2721 7.29251 7.97278C7.34693 7.72789 7.37414 7.48299 7.34693 7.21088C7.29251 6.7483 7.0204 6.42177 6.55781 6.28572C6.14965 6.17687 5.74149 6.14966 5.33332 6.12245C4.54421 6.12245 3.78231 6.12245 2.99319 6.12245C2.96598 6.12245 2.93877 6.12245 2.91156 6.12245C2.88435 7.07483 2.88435 7.97278 2.88435 8.89795Z" fill="currentColor"/>
  <path fill-rule="evenodd" clip-rule="evenodd" d="M20.0006 12.2449C17.8238 12.2449 15.6741 12.2449 13.4972 12.2449C13.4972 12.381 13.5244 12.517 13.5244 12.6258C13.5517 12.8707 13.6333 13.1156 13.7421 13.3605C14.0415 13.9592 14.5313 14.2857 15.1843 14.4218C15.5381 14.5034 15.919 14.5034 16.2727 14.4218C16.817 14.3129 17.1979 14.0136 17.47 13.5238C17.4972 13.4694 17.5244 13.4422 17.5789 13.4422C18.3136 13.4422 19.0483 13.4422 19.7829 13.4422C19.8102 13.4422 19.8374 13.4422 19.8646 13.4422C19.8374 13.5782 19.8102 13.6871 19.7829 13.7959C19.6469 14.2585 19.3748 14.6122 19.0755 14.966C18.3952 15.7279 17.5517 16.136 16.5721 16.2721C15.7829 16.3809 15.021 16.3809 14.2591 16.136C13.47 15.9184 12.7625 15.5102 12.1911 14.9116C11.7285 14.4218 11.4564 13.8231 11.3204 13.1701C11.0755 12.0272 11.0755 10.8844 11.4292 9.76871C11.919 8.19048 13.0347 7.26531 14.6401 6.93878C15.6469 6.74831 16.6265 6.82994 17.5789 7.23811C18.4496 7.59185 19.0755 8.2449 19.5108 9.08844C19.7829 9.63266 19.9462 10.2041 19.9734 10.8299C20.0006 11.2653 20.0006 11.7279 20.0006 12.1633C20.0006 12.1905 20.0006 12.2177 20.0006 12.2449ZM17.5789 10.6939C17.5789 10.6667 17.5789 10.6667 17.5789 10.6667C17.5789 10.585 17.5517 10.5034 17.5517 10.4218C17.4428 9.7415 17.0619 9.25171 16.4088 8.9796C16.0823 8.84354 15.7285 8.81633 15.3748 8.84354C14.6401 8.89796 14.0959 9.25171 13.7966 9.93198C13.7149 10.1225 13.6605 10.3129 13.6061 10.5034C13.5789 10.585 13.5789 10.6395 13.5517 10.7211C14.9122 10.6939 16.2455 10.6939 17.5789 10.6939Z" fill="currentColor"/>
  <path fill-rule="evenodd" clip-rule="evenodd" d="M13.0625 5.93198C13.0625 5.44218 13.0625 4.9796 13.0625 4.48981C14.7224 4.48981 16.4094 4.48981 18.0693 4.48981C18.0693 4.9796 18.0693 5.44218 18.0693 5.93198C16.4094 5.93198 14.7496 5.93198 13.0625 5.93198Z" fill="currentColor"/>
</svg>
