<svg width="20" height="20" viewBox="0 0 20 20" fill="none" xmlns="http://www.w3.org/2000/svg">
  <path d="M15.7164 20H4.28365C1.91028 20 0 18.1241 0 15.8442V4.15584C0 1.84704 1.91028 0 4.28365 0H15.7164C18.0897 0 20 1.8759 20 4.15584V15.8442C20 18.153 18.0897 20 15.7164 20ZM4.28365 1.70274C2.86541 1.70274 1.70767 2.79942 1.70767 4.15584V15.8442C1.70767 17.2006 2.86541 18.2973 4.28365 18.2973H15.7164C17.1346 18.2973 18.2923 17.2006 18.2923 15.8442V4.15584C18.2923 2.79942 17.1346 1.70274 15.7164 1.70274H4.28365Z" fill="currentColor"/>
  <path d="M10.0142 15.1804C7.11982 15.1804 4.77539 12.8427 4.77539 9.98558C4.77539 7.12843 7.11982 4.79077 10.0142 4.79077C12.9085 4.79077 15.253 7.12843 15.253 9.98558C15.253 12.8716 12.8796 15.1804 10.0142 15.1804ZM10.0142 6.52237C8.07496 6.52237 6.512 8.08082 6.512 10.0144C6.512 11.9192 8.07496 13.5065 10.0142 13.5065C11.9534 13.5065 13.5163 11.9481 13.5163 10.0144C13.5163 8.08082 11.9534 6.52237 10.0142 6.52237Z" fill="currentColor"/>
  <path d="M16.8453 4.53103C16.8453 5.19481 16.2954 5.74315 15.6297 5.74315C14.964 5.74315 14.4141 5.19481 14.4141 4.53103C14.4141 3.86725 14.964 3.31891 15.6297 3.31891C16.2954 3.31891 16.8453 3.86725 16.8453 4.53103Z" fill="currentColor"/>
</svg>
