<svg width="20" height="20" viewBox="0 0 20 20" fill="none" xmlns="http://www.w3.org/2000/svg">
  <path fill-rule="evenodd" clip-rule="evenodd" d="M2.05539 16.59C1.29023 16.354 0.789932 15.8524 0.52507 15.1148C-0.1518 13.2856 -0.328377 5.64413 0.937076 4.13944C1.37851 3.63788 1.93767 3.31334 2.61454 3.25433C6.05775 2.87078 16.7405 2.92979 17.9471 3.37234C18.6534 3.63788 19.1831 4.10994 19.448 4.81803C20.1837 6.70627 20.2132 13.5806 19.3597 15.4099C19.1243 15.9114 18.7417 16.2655 18.2708 16.5015C17.0054 17.1506 3.73285 17.1506 2.05539 16.59ZM7.5292 12.9906C9.61867 11.9284 11.6493 10.8368 13.7387 9.77466C11.6493 8.68302 9.58924 7.62088 7.5292 6.52925C7.5292 8.71252 7.5292 10.8368 7.5292 12.9906Z" fill="currentColor"/>
</svg>
